<?xml version="1.0" encoding="UTF-8"?>
<svg width="44px" height="44px" viewBox="0 0 44 44" version="1.1" xmlns="http://www.w3.org/2000/svg" xmlns:xlink="http://www.w3.org/1999/xlink">
    <!-- Generator: Sketch 57.1 (83088) - https://sketch.com -->
    <title>mdpi/删除</title>
    <desc>Created with Sketch.</desc>
    <g id="页面-1" stroke="none" stroke-width="1" fill="none" fill-rule="evenodd" stroke-linejoin="round">
        <g id="课程-搜索" transform="translate(-684.000000, -155.000000)" stroke="#666666">
            <g id="编组-8" transform="translate(684.000000, 155.000000)">
                <g id="编组-3" transform="translate(11.000000, 9.000000)">
                    <path d="M3.22157612,5 L20.7784239,5 C21.8829934,5 22.7784239,5.8954305 22.7784239,7 C22.7784239,7.06993399 22.7747558,7.13981984 22.7674348,7.20936957 L21.3769748,20.4187391 C21.1626815,22.454526 19.4459874,24 17.398953,24 L6.60104698,24 C4.55401259,24 2.83731853,22.454526 2.62302517,20.4187391 L1.23256522,7.20936957 C1.1169336,6.11086918 1.91370616,5.12662071 3.01220655,5.01098909 C3.08175628,5.00366807 3.15164214,5 3.22157612,5 Z" id="矩形"></path>
                    <path d="M0.5,3.5 L23.5,3.5" id="直线" stroke-linecap="round"></path>
                    <rect id="矩形" stroke-linecap="round" x="9" y="0" width="6" height="3"></rect>
                    <path d="M9.5,9.5 L9.5,19.5" id="直线-2" stroke-linecap="round"></path>
                    <path d="M15.5,9.5 L15.5,19.5" id="直线-2备份" stroke-linecap="round"></path>
                </g>
            </g>
        </g>
    </g>
</svg>