<?xml version="1.0" encoding="UTF-8"?>
<svg width="44px" height="44px" viewBox="0 0 44 44" version="1.1" xmlns="http://www.w3.org/2000/svg" xmlns:xlink="http://www.w3.org/1999/xlink">
    <!-- Generator: Sketch 57.1 (83088) - https://sketch.com -->
    <title>mdpi/我的点赞</title>
    <desc>Created with Sketch.</desc>
    <g id="页面-1" stroke="none" stroke-width="1" fill="none" fill-rule="evenodd" stroke-linejoin="round">
        <g id="课程中心" transform="translate(-530.000000, -829.000000)" stroke="#999999">
            <g id="我的点赞备份-2" transform="translate(530.000000, 829.000000)">
                <g id="我的点赞">
                    <g id="编组-9" transform="translate(9.000000, 9.000000)">
                        <path d="M1.9644768,9.1675584 L2.374128,9.1675584 C3.45907858,9.1675584 4.3386048,10.0470846 4.3386048,11.1320352 L4.3386048,22.2640704 C4.3386048,23.349021 3.45907858,24.2285472 2.374128,24.2285472 L1.9644768,24.2285472 C0.879526222,24.2285472 -8.91764797e-17,23.349021 0,22.2640704 L0,11.1320352 C-3.5491273e-16,10.0470846 0.879526222,9.1675584 1.9644768,9.1675584 Z" id="矩形"></path>
                        <path d="M8.70536394,8.98753796 C10.7696271,8.386883 11.9983205,7.27411008 12.3914442,5.6492192 C13.1123581,2.66947921 12.7642761,0 15.591106,0 C18.417936,0 18.7283983,3.16462143 18.7283983,4.27719421 C18.7283983,5.0189094 18.5104015,6.49216519 18.074408,8.69696157 L25.3075503,8.69696157 C26.4589242,8.69696157 27.3922971,9.63033449 27.3922971,10.7817084 C27.3922971,10.9959437 27.359275,11.208899 27.2943939,11.4130735 L24.1456736,21.3217839 C23.5956096,23.0527806 21.9882794,24.2285472 20.1719865,24.2285472 L9.28782838,24.2285472 C8.13645453,24.2285472 7.2030816,23.2951743 7.2030816,22.1438004 L7.2030816,10.989286 C7.20305984,10.0622319 7.81522744,9.24654802 8.70536394,8.98753796 Z" id="路径-2"></path>
                    </g>
                </g>
            </g>
        </g>
    </g>
</svg>